<svg width="22" height="17" viewBox="0 0 22 17" fill="none" xmlns="http://www.w3.org/2000/svg">
<path d="M11.1562 11L8.03125 8.5625C8.3125 9.96875 9.53125 11.0312 10.9688 11.0312C11.0312 11.0312 11.0938 11 11.1562 11ZM11 12.5312H10.9688C8.5 12.5312 6.46875 10.5 6.46875 8.03125C6.46875 7.8125 6.53125 7.59375 6.53125 7.40625L3.53125 5.03125C2.96875 5.78125 2.5 6.59375 2.09375 7.46875C2.03125 7.625 1.96875 7.875 1.96875 8.03125C1.96875 8.15625 2.03125 8.40625 2.09375 8.5625C3.78125 12.4062 7.15625 15 10.9688 15C12.4062 15 13.75 14.6562 15 14L12.6562 12.1875C12.125 12.4062 11.5938 12.5312 11 12.5312ZM20.6875 14.6875L17.4688 12.125C18.4375 11.125 19.2812 9.9375 19.875 8.5625C19.9375 8.40625 19.9688 8.15625 19.9688 8.03125C19.9688 7.875 19.9375 7.625 19.875 7.46875C18.1875 3.625 14.8125 1.03125 10.9688 1.03125C9.03125 1.03125 7.1875 1.6875 5.65625 2.875L2.1875 0.1875C2.0625 0.0625 1.90625 0 1.75 0C1.5 0 1.28125 0.125 1.15625 0.3125C0.875 0.625 0.9375 1.09375 1.28125 1.34375L19.7812 15.8438C20.0938 16.125 20.5625 16.0625 20.8125 15.7188C21.0938 15.4062 21.0312 14.9375 20.6875 14.6875ZM15.4688 8.03125C15.4688 8.78125 15.2812 9.53125 14.9375 10.1562L13.7188 9.21875C13.875 8.84375 13.9688 8.4375 13.9688 8.03125C13.9688 6.375 12.625 5.03125 10.9688 5.03125C10.9062 5.03125 10.8125 5.03125 10.7188 5.03125C10.875 5.34375 10.9688 5.65625 10.9688 6.03125C10.9688 6.34375 10.9062 6.625 10.7812 6.90625L7.96875 4.71875C8.78125 3.96875 9.8125 3.53125 10.9688 3.53125C13.4688 3.53125 15.4688 5.53125 15.4688 8.03125Z" fill="currentColor"/>
</svg>
