<svg width="17" height="17" viewBox="0 0 17 17" fill="none" xmlns="http://www.w3.org/2000/svg">
<path d="M15.75 14.0312L11.875 10.1562C12.5625 9.09375 13 7.84375 13 6.5C13 2.9375 10.0625 0 6.5 0C2.90625 0 0 2.9375 0 6.5C0 10.0938 2.90625 13 6.5 13C7.8125 13 9.0625 12.5938 10.125 11.9062L14 15.7812C14.2812 16.0938 14.75 16.0938 15.0625 15.7812L15.75 15.0938C16.0625 14.7812 16.0625 14.3125 15.75 14.0312ZM2.5 6.5C2.5 4.3125 4.28125 2.5 6.5 2.5C8.6875 2.5 10.5 4.3125 10.5 6.5C10.5 8.71875 8.6875 10.5 6.5 10.5C4.28125 10.5 2.5 8.71875 2.5 6.5Z" fill="currentColor"/>
</svg>
