<svg width="24" height="24" viewBox="0 0 24 24" fill="none" xmlns="http://www.w3.org/2000/svg">
<path d="M12 0.75C5.76562 0.75 0.75 5.8125 0.75 12C0.75 18.2344 5.76562 23.25 12 23.25C18.1875 23.25 23.25 18.2344 23.25 12C23.25 5.8125 18.1875 0.75 12 0.75ZM17.3906 9.9375L11.3906 15.9375C11.1562 16.2188 10.8281 16.3125 10.5 16.3125C10.125 16.3125 9.79688 16.2188 9.5625 15.9375L6.5625 12.9375C6.04688 12.4219 6.04688 11.625 6.5625 11.1094C7.07812 10.5938 7.875 10.5938 8.39062 11.1094L10.5 13.1719L15.5625 8.10938C16.0781 7.59375 16.875 7.59375 17.3906 8.10938C17.9062 8.625 17.9062 9.42188 17.3906 9.9375Z" fill="currentColor"/>
</svg>
