<svg width="157" height="29" viewBox="0 0 157 29" fill="none" xmlns="http://www.w3.org/2000/svg">
<rect width="28.7736" height="28.7714" rx="14.3857" fill="#4D70FF"/>
<path d="M14.1425 25.7714C14.1095 25.7714 14.077 25.7714 14.044 25.7714C8.13536 25.7423 2.97149 20.5382 3.00012 14.634C3.02929 8.60094 8.29279 3.05615 14.0435 3C14.0633 3 14.0831 3 14.1029 3C17.3391 3 19.9064 4.99212 20.8185 7.98112C23.7299 8.87562 25.6747 11.3675 25.771 14.6037C25.836 17.2514 24.6739 19.9845 22.5833 22.1076C20.2868 24.4393 17.2152 25.7714 14.1431 25.7714M5.44691 14.6455C5.4249 19.2463 9.45041 23.3015 14.0611 23.3236C16.4677 23.345 19.0086 22.2491 20.8389 20.3901C22.4672 18.7371 23.3727 16.652 23.3242 14.6698C23.2736 12.9611 22.4705 11.5899 21.1697 10.8028C21.0877 13.5826 20.0451 16.1923 18.3216 17.8845C17.0677 19.1153 15.5253 19.756 14.006 19.6977C12.7152 19.6679 11.4822 19.1147 10.5568 18.1404C9.62656 17.1617 9.11353 15.8731 9.14876 14.6048C9.17463 13.0701 9.90234 11.5316 11.1987 10.2848C12.9062 8.64222 15.3651 7.68717 18.009 7.62332C17.207 6.26203 15.7807 5.43524 14.0649 5.44625C9.65959 5.48918 5.47003 9.95947 5.44747 14.6444M18.2996 10.0685C16.2007 10.0685 14.1926 10.8017 12.8952 12.0496C12.0717 12.8411 11.6104 13.7681 11.5956 14.6604C11.5785 15.2868 11.8532 15.9529 12.331 16.4555C12.8049 16.9542 13.4275 17.2371 14.0842 17.2525C15.1917 17.2993 16.0647 16.6712 16.6069 16.1384C17.9853 14.7854 18.7774 12.5824 18.7262 10.2457C18.7246 10.1896 18.7218 10.134 18.7191 10.0789C18.6464 10.0751 18.5732 10.0723 18.4994 10.0701C18.4323 10.0685 18.3657 10.0679 18.2996 10.0679" fill="white"/>
<path d="M35.1816 20.3857V9.18573H37.9016V17.9857H42.8936V20.3857H35.1816ZM44.3236 20.3857V11.8897H46.8836V20.3857H44.3236ZM45.6036 10.2097C45.1236 10.2097 44.7449 10.0977 44.4676 9.87373C44.2009 9.63906 44.0676 9.30839 44.0676 8.88173C44.0676 8.49773 44.2063 8.18306 44.4836 7.93773C44.7609 7.69239 45.1343 7.56973 45.6036 7.56973C46.0836 7.56973 46.4569 7.68706 46.7236 7.92173C46.9903 8.14573 47.1236 8.46573 47.1236 8.88173C47.1236 9.27639 46.9849 9.59639 46.7076 9.84173C46.4409 10.0871 46.0729 10.2097 45.6036 10.2097ZM52.697 24.0657C52.0036 24.0657 51.3103 23.9644 50.617 23.7617C49.9343 23.5591 49.3796 23.2977 48.953 22.9777L49.849 21.1857C50.073 21.3351 50.3183 21.4631 50.585 21.5697C50.8623 21.6871 51.1503 21.7777 51.449 21.8417C51.7476 21.9057 52.0516 21.9377 52.361 21.9377C52.905 21.9377 53.3476 21.8577 53.689 21.6977C54.0303 21.5377 54.2863 21.2924 54.457 20.9617C54.6276 20.6417 54.713 20.2364 54.713 19.7457V18.3217L55.209 18.4017C55.1343 18.7537 54.9476 19.0737 54.649 19.3617C54.361 19.6497 54.0036 19.8844 53.577 20.0657C53.1503 20.2364 52.697 20.3217 52.217 20.3217C51.449 20.3217 50.761 20.1457 50.153 19.7937C49.5556 19.4311 49.081 18.9351 48.729 18.3057C48.3876 17.6657 48.217 16.9297 48.217 16.0977C48.217 15.2444 48.3876 14.4924 48.729 13.8417C49.0703 13.1804 49.5396 12.6631 50.137 12.2897C50.7343 11.9057 51.4063 11.7137 52.153 11.7137C52.473 11.7137 52.777 11.7511 53.065 11.8257C53.3636 11.9004 53.6356 12.0017 53.881 12.1297C54.137 12.2471 54.361 12.3911 54.553 12.5617C54.7556 12.7217 54.9156 12.8977 55.033 13.0897C55.161 13.2817 55.2463 13.4791 55.289 13.6817L54.761 13.8097L54.857 11.8897H57.289V19.6977C57.289 20.3911 57.1823 21.0044 56.969 21.5377C56.7663 22.0817 56.4623 22.5404 56.057 22.9137C55.6623 23.2977 55.1823 23.5857 54.617 23.7777C54.0516 23.9697 53.4116 24.0657 52.697 24.0657ZM52.761 18.3377C53.177 18.3377 53.5343 18.2471 53.833 18.0657C54.1423 17.8737 54.377 17.6124 54.537 17.2817C54.7076 16.9511 54.793 16.5617 54.793 16.1137C54.793 15.6657 54.7076 15.2764 54.537 14.9457C54.377 14.6044 54.1423 14.3431 53.833 14.1617C53.5343 13.9697 53.177 13.8737 52.761 13.8737C52.3556 13.8737 52.0036 13.9697 51.705 14.1617C51.4063 14.3431 51.1716 14.6044 51.001 14.9457C50.841 15.2764 50.761 15.6657 50.761 16.1137C50.761 16.5617 50.841 16.9511 51.001 17.2817C51.1716 17.6124 51.4063 17.8737 51.705 18.0657C52.0036 18.2471 52.3556 18.3377 52.761 18.3377ZM63.0321 20.5457C62.1468 20.5457 61.3574 20.3537 60.6641 19.9697C59.9814 19.5857 59.4374 19.0631 59.0321 18.4017C58.6374 17.7404 58.4401 16.9831 58.4401 16.1297C58.4401 15.2764 58.6374 14.5191 59.0321 13.8577C59.4374 13.1964 59.9814 12.6737 60.6641 12.2897C61.3574 11.9057 62.1468 11.7137 63.0321 11.7137C63.9174 11.7137 64.7014 11.9057 65.3841 12.2897C66.0774 12.6737 66.6214 13.1964 67.0161 13.8577C67.4108 14.5191 67.6081 15.2764 67.6081 16.1297C67.6081 16.9831 67.4108 17.7404 67.0161 18.4017C66.6214 19.0631 66.0774 19.5857 65.3841 19.9697C64.7014 20.3537 63.9174 20.5457 63.0321 20.5457ZM63.0321 18.3377C63.4161 18.3377 63.7574 18.2417 64.0561 18.0497C64.3548 17.8577 64.5894 17.5964 64.7601 17.2657C64.9308 16.9351 65.0108 16.5564 65.0001 16.1297C65.0108 15.7031 64.9308 15.3244 64.7601 14.9937C64.5894 14.6524 64.3548 14.3857 64.0561 14.1937C63.7574 14.0017 63.4161 13.9057 63.0321 13.9057C62.6481 13.9057 62.3014 14.0017 61.9921 14.1937C61.6934 14.3857 61.4588 14.6524 61.2881 14.9937C61.1174 15.3244 61.0374 15.7031 61.0481 16.1297C61.0374 16.5564 61.1174 16.9351 61.2881 17.2657C61.4588 17.5964 61.6934 17.8577 61.9921 18.0497C62.3014 18.2417 62.6481 18.3377 63.0321 18.3377Z" fill="#4D70FF"/>
<path d="M73.4311 20.3857V11.8897H75.8631L75.9431 13.4257L75.6071 13.4417C75.7351 13.1644 75.8951 12.9191 76.0871 12.7057C76.2898 12.4924 76.5138 12.3164 76.7591 12.1777C77.0151 12.0284 77.2764 11.9164 77.5431 11.8417C77.8204 11.7671 78.0978 11.7297 78.3751 11.7297C78.7911 11.7297 79.1698 11.7937 79.5111 11.9217C79.8524 12.0497 80.1511 12.2577 80.4071 12.5457C80.6631 12.8231 80.8658 13.2017 81.0151 13.6817L80.6151 13.6497L80.7431 13.3937C80.8818 13.1377 81.0578 12.9084 81.2711 12.7057C81.4951 12.4924 81.7404 12.3164 82.0071 12.1777C82.2738 12.0284 82.5511 11.9164 82.8391 11.8417C83.1271 11.7671 83.4044 11.7297 83.6711 11.7297C84.3431 11.7297 84.9031 11.8631 85.3511 12.1297C85.7991 12.3857 86.1351 12.7751 86.3591 13.2977C86.5938 13.8204 86.7111 14.4551 86.7111 15.2017V20.3857H84.1351V15.4097C84.1351 15.0684 84.0871 14.7857 83.9911 14.5617C83.8951 14.3377 83.7511 14.1724 83.5591 14.0657C83.3778 13.9484 83.1484 13.8897 82.8711 13.8897C82.6471 13.8897 82.4391 13.9271 82.2471 14.0017C82.0658 14.0764 81.9058 14.1777 81.7671 14.3057C81.6391 14.4337 81.5378 14.5831 81.4631 14.7537C81.3884 14.9244 81.3511 15.1164 81.3511 15.3297V20.3857H78.7751V15.3937C78.7751 15.0737 78.7271 14.8017 78.6311 14.5777C78.5351 14.3537 78.3911 14.1831 78.1991 14.0657C78.0071 13.9484 77.7831 13.8897 77.5271 13.8897C77.3031 13.8897 77.0951 13.9271 76.9031 14.0017C76.7218 14.0764 76.5618 14.1777 76.4231 14.3057C76.2951 14.4337 76.1938 14.5831 76.1191 14.7537C76.0444 14.9244 76.0071 15.1111 76.0071 15.3137V20.3857H73.4311ZM92.4057 20.5457C91.467 20.5457 90.651 20.3591 89.9577 19.9857C89.2644 19.6017 88.7257 19.0844 88.3417 18.4337C87.9577 17.7724 87.7657 17.0204 87.7657 16.1777C87.7657 15.5271 87.8724 14.9297 88.0857 14.3857C88.299 13.8417 88.5977 13.3724 88.9817 12.9777C89.3657 12.5724 89.819 12.2631 90.3417 12.0497C90.875 11.8257 91.4564 11.7137 92.0857 11.7137C92.683 11.7137 93.227 11.8204 93.7177 12.0337C94.219 12.2471 94.651 12.5457 95.0137 12.9297C95.3764 13.3137 95.6537 13.7671 95.8457 14.2897C96.0377 14.8124 96.123 15.3831 96.1017 16.0017L96.0857 16.6897H89.3177L88.9497 15.2497H94.0057L93.7337 15.5537V15.2337C93.7124 14.9671 93.627 14.7324 93.4777 14.5297C93.339 14.3164 93.1524 14.1511 92.9177 14.0337C92.683 13.9164 92.4164 13.8577 92.1177 13.8577C91.7017 13.8577 91.3444 13.9431 91.0457 14.1137C90.7577 14.2737 90.539 14.5137 90.3897 14.8337C90.2404 15.1431 90.1657 15.5271 90.1657 15.9857C90.1657 16.4551 90.2617 16.8657 90.4537 17.2177C90.6564 17.5591 90.9444 17.8257 91.3177 18.0177C91.7017 18.2097 92.155 18.3057 92.6777 18.3057C93.0404 18.3057 93.3604 18.2524 93.6377 18.1457C93.9257 18.0391 94.235 17.8577 94.5657 17.6017L95.7657 19.2977C95.435 19.5857 95.083 19.8204 94.7097 20.0017C94.3364 20.1831 93.9524 20.3164 93.5577 20.4017C93.1737 20.4977 92.7897 20.5457 92.4057 20.5457ZM100.117 20.5457C99.2847 20.5457 98.5487 20.4124 97.9087 20.1457C97.2794 19.8791 96.778 19.5217 96.4047 19.0737L97.9567 17.7297C98.2874 18.0604 98.6607 18.3057 99.0767 18.4657C99.4927 18.6151 99.8874 18.6897 100.261 18.6897C100.41 18.6897 100.543 18.6737 100.661 18.6417C100.778 18.6097 100.874 18.5671 100.949 18.5137C101.034 18.4497 101.098 18.3804 101.141 18.3057C101.183 18.2204 101.205 18.1244 101.205 18.0177C101.205 17.8044 101.109 17.6391 100.917 17.5217C100.821 17.4684 100.661 17.4044 100.437 17.3297C100.213 17.2551 99.9247 17.1697 99.5727 17.0737C99.0714 16.9457 98.634 16.7964 98.2607 16.6257C97.898 16.4444 97.5994 16.2364 97.3647 16.0017C97.1514 15.7777 96.986 15.5324 96.8687 15.2657C96.7514 14.9884 96.6927 14.6791 96.6927 14.3377C96.6927 13.9431 96.7834 13.5857 96.9647 13.2657C97.1567 12.9457 97.4074 12.6684 97.7167 12.4337C98.0367 12.1991 98.3994 12.0231 98.8047 11.9057C99.2207 11.7777 99.6474 11.7137 100.085 11.7137C100.554 11.7137 101.002 11.7671 101.429 11.8737C101.855 11.9804 102.25 12.1297 102.613 12.3217C102.986 12.5137 103.317 12.7431 103.605 13.0097L102.261 14.5137C102.069 14.3324 101.85 14.1724 101.605 14.0337C101.37 13.8844 101.125 13.7671 100.869 13.6817C100.613 13.5964 100.378 13.5537 100.165 13.5537C100.005 13.5537 99.8607 13.5697 99.7327 13.6017C99.6154 13.6231 99.514 13.6657 99.4287 13.7297C99.3434 13.7831 99.2794 13.8524 99.2367 13.9377C99.194 14.0124 99.1727 14.1031 99.1727 14.2097C99.1727 14.3164 99.1994 14.4177 99.2527 14.5137C99.3167 14.6097 99.402 14.6897 99.5087 14.7537C99.6154 14.8177 99.786 14.8924 100.021 14.9777C100.255 15.0524 100.575 15.1484 100.981 15.2657C101.482 15.4044 101.914 15.5591 102.277 15.7297C102.639 15.9004 102.927 16.1031 103.141 16.3377C103.311 16.5191 103.439 16.7324 103.525 16.9777C103.61 17.2124 103.653 17.4684 103.653 17.7457C103.653 18.2897 103.498 18.7751 103.189 19.2017C102.89 19.6177 102.474 19.9484 101.941 20.1937C101.407 20.4284 100.799 20.5457 100.117 20.5457ZM107.559 20.5457C106.727 20.5457 105.991 20.4124 105.351 20.1457C104.721 19.8791 104.22 19.5217 103.847 19.0737L105.399 17.7297C105.729 18.0604 106.103 18.3057 106.519 18.4657C106.935 18.6151 107.329 18.6897 107.703 18.6897C107.852 18.6897 107.985 18.6737 108.103 18.6417C108.22 18.6097 108.316 18.5671 108.391 18.5137C108.476 18.4497 108.54 18.3804 108.583 18.3057C108.625 18.2204 108.647 18.1244 108.647 18.0177C108.647 17.8044 108.551 17.6391 108.359 17.5217C108.263 17.4684 108.103 17.4044 107.879 17.3297C107.655 17.2551 107.367 17.1697 107.015 17.0737C106.513 16.9457 106.076 16.7964 105.703 16.6257C105.34 16.4444 105.041 16.2364 104.807 16.0017C104.593 15.7777 104.428 15.5324 104.311 15.2657C104.193 14.9884 104.135 14.6791 104.135 14.3377C104.135 13.9431 104.225 13.5857 104.407 13.2657C104.599 12.9457 104.849 12.6684 105.159 12.4337C105.479 12.1991 105.841 12.0231 106.247 11.9057C106.663 11.7777 107.089 11.7137 107.527 11.7137C107.996 11.7137 108.444 11.7671 108.871 11.8737C109.297 11.9804 109.692 12.1297 110.055 12.3217C110.428 12.5137 110.759 12.7431 111.047 13.0097L109.703 14.5137C109.511 14.3324 109.292 14.1724 109.047 14.0337C108.812 13.8844 108.567 13.7671 108.311 13.6817C108.055 13.5964 107.82 13.5537 107.607 13.5537C107.447 13.5537 107.303 13.5697 107.175 13.6017C107.057 13.6231 106.956 13.6657 106.871 13.7297C106.785 13.7831 106.721 13.8524 106.679 13.9377C106.636 14.0124 106.615 14.1031 106.615 14.2097C106.615 14.3164 106.641 14.4177 106.695 14.5137C106.759 14.6097 106.844 14.6897 106.951 14.7537C107.057 14.8177 107.228 14.8924 107.463 14.9777C107.697 15.0524 108.017 15.1484 108.423 15.2657C108.924 15.4044 109.356 15.5591 109.719 15.7297C110.081 15.9004 110.369 16.1031 110.583 16.3377C110.753 16.5191 110.881 16.7324 110.967 16.9777C111.052 17.2124 111.095 17.4684 111.095 17.7457C111.095 18.2897 110.94 18.7751 110.631 19.2017C110.332 19.6177 109.916 19.9484 109.383 20.1937C108.849 20.4284 108.241 20.5457 107.559 20.5457ZM115.272 20.5297C114.558 20.5297 113.918 20.3431 113.352 19.9697C112.798 19.5857 112.355 19.0631 112.024 18.4017C111.694 17.7297 111.528 16.9724 111.528 16.1297C111.528 15.2657 111.694 14.5031 112.024 13.8417C112.355 13.1804 112.808 12.6631 113.384 12.2897C113.96 11.9057 114.616 11.7137 115.352 11.7137C115.758 11.7137 116.126 11.7724 116.456 11.8897C116.798 12.0071 117.096 12.1724 117.352 12.3857C117.608 12.5884 117.827 12.8284 118.008 13.1057C118.19 13.3724 118.323 13.6604 118.408 13.9697L117.88 13.9057V11.8897H120.424V20.3857H117.832V18.3377L118.408 18.3217C118.323 18.6204 118.184 18.9031 117.992 19.1697C117.8 19.4364 117.566 19.6711 117.288 19.8737C117.011 20.0764 116.702 20.2364 116.36 20.3537C116.019 20.4711 115.656 20.5297 115.272 20.5297ZM115.976 18.3697C116.371 18.3697 116.712 18.2791 117 18.0977C117.288 17.9164 117.512 17.6604 117.672 17.3297C117.832 16.9884 117.912 16.5884 117.912 16.1297C117.912 15.6711 117.832 15.2764 117.672 14.9457C117.512 14.6044 117.288 14.3431 117 14.1617C116.712 13.9697 116.371 13.8737 115.976 13.8737C115.592 13.8737 115.256 13.9697 114.968 14.1617C114.691 14.3431 114.472 14.6044 114.312 14.9457C114.152 15.2764 114.072 15.6711 114.072 16.1297C114.072 16.5884 114.152 16.9884 114.312 17.3297C114.472 17.6604 114.691 17.9164 114.968 18.0977C115.256 18.2791 115.592 18.3697 115.976 18.3697ZM126.091 24.0657C125.398 24.0657 124.705 23.9644 124.011 23.7617C123.329 23.5591 122.774 23.2977 122.347 22.9777L123.243 21.1857C123.467 21.3351 123.713 21.4631 123.979 21.5697C124.257 21.6871 124.545 21.7777 124.843 21.8417C125.142 21.9057 125.446 21.9377 125.755 21.9377C126.299 21.9377 126.742 21.8577 127.083 21.6977C127.425 21.5377 127.681 21.2924 127.851 20.9617C128.022 20.6417 128.107 20.2364 128.107 19.7457V18.3217L128.603 18.4017C128.529 18.7537 128.342 19.0737 128.043 19.3617C127.755 19.6497 127.398 19.8844 126.971 20.0657C126.545 20.2364 126.091 20.3217 125.611 20.3217C124.843 20.3217 124.155 20.1457 123.547 19.7937C122.95 19.4311 122.475 18.9351 122.123 18.3057C121.782 17.6657 121.611 16.9297 121.611 16.0977C121.611 15.2444 121.782 14.4924 122.123 13.8417C122.465 13.1804 122.934 12.6631 123.531 12.2897C124.129 11.9057 124.801 11.7137 125.547 11.7137C125.867 11.7137 126.171 11.7511 126.459 11.8257C126.758 11.9004 127.03 12.0017 127.275 12.1297C127.531 12.2471 127.755 12.3911 127.947 12.5617C128.15 12.7217 128.31 12.8977 128.427 13.0897C128.555 13.2817 128.641 13.4791 128.683 13.6817L128.155 13.8097L128.251 11.8897H130.683V19.6977C130.683 20.3911 130.577 21.0044 130.363 21.5377C130.161 22.0817 129.857 22.5404 129.451 22.9137C129.057 23.2977 128.577 23.5857 128.011 23.7777C127.446 23.9697 126.806 24.0657 126.091 24.0657ZM126.155 18.3377C126.571 18.3377 126.929 18.2471 127.227 18.0657C127.537 17.8737 127.771 17.6124 127.931 17.2817C128.102 16.9511 128.187 16.5617 128.187 16.1137C128.187 15.6657 128.102 15.2764 127.931 14.9457C127.771 14.6044 127.537 14.3431 127.227 14.1617C126.929 13.9697 126.571 13.8737 126.155 13.8737C125.75 13.8737 125.398 13.9697 125.099 14.1617C124.801 14.3431 124.566 14.6044 124.395 14.9457C124.235 15.2764 124.155 15.6657 124.155 16.1137C124.155 16.5617 124.235 16.9511 124.395 17.2817C124.566 17.6124 124.801 17.8737 125.099 18.0657C125.398 18.2471 125.75 18.3377 126.155 18.3377ZM132.57 20.3857V11.8897H135.13V20.3857H132.57ZM133.85 10.2097C133.37 10.2097 132.992 10.0977 132.714 9.87373C132.448 9.63906 132.314 9.30839 132.314 8.88173C132.314 8.49773 132.453 8.18306 132.73 7.93773C133.008 7.69239 133.381 7.56973 133.85 7.56973C134.33 7.56973 134.704 7.68706 134.97 7.92173C135.237 8.14573 135.37 8.46573 135.37 8.88173C135.37 9.27639 135.232 9.59639 134.954 9.84173C134.688 10.0871 134.32 10.2097 133.85 10.2097ZM137.056 20.3857V11.8897H139.488L139.568 13.6177L139.056 13.8097C139.173 13.4257 139.381 13.0791 139.68 12.7697C139.989 12.4497 140.357 12.1937 140.784 12.0017C141.211 11.8097 141.659 11.7137 142.128 11.7137C142.768 11.7137 143.307 11.8471 143.744 12.1137C144.181 12.3697 144.512 12.7591 144.736 13.2817C144.96 13.7937 145.072 14.4231 145.072 15.1697V20.3857H142.496V15.3777C142.496 15.0364 142.448 14.7537 142.352 14.5297C142.256 14.3057 142.107 14.1404 141.904 14.0337C141.712 13.9164 141.472 13.8631 141.184 13.8737C140.96 13.8737 140.752 13.9111 140.56 13.9857C140.368 14.0497 140.203 14.1511 140.064 14.2897C139.925 14.4177 139.813 14.5671 139.728 14.7377C139.653 14.9084 139.616 15.0951 139.616 15.2977V20.3857H138.352C138.053 20.3857 137.797 20.3857 137.584 20.3857C137.371 20.3857 137.195 20.3857 137.056 20.3857ZM150.62 24.0657C149.927 24.0657 149.233 23.9644 148.54 23.7617C147.857 23.5591 147.303 23.2977 146.876 22.9777L147.772 21.1857C147.996 21.3351 148.241 21.4631 148.508 21.5697C148.785 21.6871 149.073 21.7777 149.372 21.8417C149.671 21.9057 149.975 21.9377 150.284 21.9377C150.828 21.9377 151.271 21.8577 151.612 21.6977C151.953 21.5377 152.209 21.2924 152.38 20.9617C152.551 20.6417 152.636 20.2364 152.636 19.7457V18.3217L153.132 18.4017C153.057 18.7537 152.871 19.0737 152.572 19.3617C152.284 19.6497 151.927 19.8844 151.5 20.0657C151.073 20.2364 150.62 20.3217 150.14 20.3217C149.372 20.3217 148.684 20.1457 148.076 19.7937C147.479 19.4311 147.004 18.9351 146.652 18.3057C146.311 17.6657 146.14 16.9297 146.14 16.0977C146.14 15.2444 146.311 14.4924 146.652 13.8417C146.993 13.1804 147.463 12.6631 148.06 12.2897C148.657 11.9057 149.329 11.7137 150.076 11.7137C150.396 11.7137 150.7 11.7511 150.988 11.8257C151.287 11.9004 151.559 12.0017 151.804 12.1297C152.06 12.2471 152.284 12.3911 152.476 12.5617C152.679 12.7217 152.839 12.8977 152.956 13.0897C153.084 13.2817 153.169 13.4791 153.212 13.6817L152.684 13.8097L152.78 11.8897H155.212V19.6977C155.212 20.3911 155.105 21.0044 154.892 21.5377C154.689 22.0817 154.385 22.5404 153.98 22.9137C153.585 23.2977 153.105 23.5857 152.54 23.7777C151.975 23.9697 151.335 24.0657 150.62 24.0657ZM150.684 18.3377C151.1 18.3377 151.457 18.2471 151.756 18.0657C152.065 17.8737 152.3 17.6124 152.46 17.2817C152.631 16.9511 152.716 16.5617 152.716 16.1137C152.716 15.6657 152.631 15.2764 152.46 14.9457C152.3 14.6044 152.065 14.3431 151.756 14.1617C151.457 13.9697 151.1 13.8737 150.684 13.8737C150.279 13.8737 149.927 13.9697 149.628 14.1617C149.329 14.3431 149.095 14.6044 148.924 14.9457C148.764 15.2764 148.684 15.6657 148.684 16.1137C148.684 16.5617 148.764 16.9511 148.924 17.2817C149.095 17.6124 149.329 17.8737 149.628 18.0657C149.927 18.2471 150.279 18.3377 150.684 18.3377Z" fill="#35373F"/>
</svg>
